<svg width="114" height="105" viewBox="0 0 114 105" fill="none" xmlns="http://www.w3.org/2000/svg">
<path d="M31.0716 39.0039C31.4673 39.0872 31.863 39.1704 32.2587 39.2745C46.1494 42.7295 54.6047 56.7992 51.1268 70.6816C49.4191 77.5083 45.1706 83.003 39.631 86.4371L39.027 86.8118L26.4067 94.3878H65.4965V104.753H6.22656V94.471L6.33069 94.4086L34.2788 77.5915C37.5068 75.531 40.0058 72.2009 41.0055 68.2048C42.9631 60.3582 38.548 52.4284 31.0508 49.8268V39.0455L31.0716 39.0039Z" fill="#EDDFD0"/>
<path fill-rule="evenodd" clip-rule="evenodd" d="M0 70.3273H31.0719V60.3994H10.9127V12.6123H0V70.3273Z" fill="#EDDFD0"/>
<path d="M28.7194 12.6123H17.9316V55.9037H28.7194V12.6123Z" fill="#EDDFD0"/>
<path fill-rule="evenodd" clip-rule="evenodd" d="M66.1207 89.7466H75.9088L90.8616 51.492H79.6574L71.0772 74.8444L48.0648 12.9668H36.6523L66.1207 89.7466Z" fill="#EDDFD0"/>
<path fill-rule="evenodd" clip-rule="evenodd" d="M17.8906 5.43224C17.8906 2.43514 20.3272 0 23.3261 0C26.325 0 28.7616 2.43514 28.7616 5.43224C28.7616 8.42934 26.325 10.8645 23.3261 10.8645C20.3272 10.8645 17.8906 8.42934 17.8906 5.43224Z" fill="#EDDFD0"/>
<path fill-rule="evenodd" clip-rule="evenodd" d="M68.0386 43.9154C68.58 43.9154 68.9549 43.8114 69.1632 43.5824C69.3714 43.3535 69.4756 42.958 69.4756 42.3961C69.4756 41.8341 69.3714 41.3971 69.184 41.1265C68.9757 40.8559 68.6633 40.731 68.226 40.731H68.0386V43.9154ZM66.7266 39.6279H68.4551C69.2881 39.6279 69.8921 39.8361 70.2669 40.2523C70.6418 40.6686 70.8292 41.3554 70.8292 42.2712C70.8292 43.5616 70.4544 44.3942 69.6838 44.7688C69.3089 44.9353 68.7466 45.0185 68.0386 45.0185V49.3269H66.7266V39.6279Z" fill="#EDDFD0"/>
<path fill-rule="evenodd" clip-rule="evenodd" d="M73.1401 43.936C73.64 43.936 74.0148 43.8111 74.2231 43.5821C74.4313 43.3532 74.5355 42.9577 74.5355 42.3958C74.5355 42.0836 74.5146 41.8338 74.473 41.6257C74.4313 41.4176 74.3689 41.2302 74.2647 41.1054C74.1814 40.9805 74.0565 40.8764 73.8899 40.814C73.7441 40.7515 73.5567 40.7099 73.3692 40.7099H73.1401V43.936ZM71.8281 39.6484H73.5567C74.2647 39.6484 74.8062 39.8149 75.1394 40.148C75.5768 40.585 75.8058 41.2511 75.8058 42.1668C75.8058 42.8537 75.6809 43.4156 75.4518 43.8527C75.2227 44.269 74.8895 44.5395 74.4522 44.6228L76.2432 49.3474H74.9103L73.1401 44.602V49.3474H71.8281V39.6484Z" fill="#EDDFD0"/>
<path fill-rule="evenodd" clip-rule="evenodd" d="M80.6165 44.8727C80.6165 43.1869 80.5332 42.0838 80.3874 41.5218C80.2416 40.9599 79.9292 40.6893 79.4711 40.6893C79.0129 40.6893 78.7005 40.939 78.5339 41.4386C78.3881 41.9589 78.3048 42.9787 78.3048 44.5189C78.3048 45.9342 78.3881 46.9124 78.5339 47.4744C78.7005 47.9947 79.0129 48.2445 79.4502 48.2445C79.8876 48.2445 80.2 47.9947 80.3458 47.516C80.5124 47.0373 80.5957 46.1423 80.5957 44.8519L80.6165 44.8727ZM81.991 44.727C81.991 46.4337 81.8036 47.6617 81.4287 48.3693C81.0538 49.0978 80.4082 49.4516 79.5127 49.4516C78.5756 49.4516 77.9091 49.0562 77.5135 48.2861C77.1386 47.5368 76.9512 46.184 76.9512 44.2483C76.9512 42.5208 77.1386 41.2929 77.5135 40.5852C77.8883 39.8568 78.5339 39.5029 79.4502 39.5029C80.2625 39.5029 80.8664 39.7735 81.2621 40.3355C81.512 40.7101 81.7203 41.2304 81.8244 41.9173C81.9493 42.5625 81.991 43.4782 81.991 44.7062V44.727Z" fill="#EDDFD0"/>
<path fill-rule="evenodd" clip-rule="evenodd" d="M84.5933 43.9154C85.1347 43.9154 85.5096 43.8114 85.7179 43.5824C85.9261 43.3535 86.0302 42.958 86.0302 42.3961C86.0302 41.8341 85.9261 41.3971 85.7387 41.1265C85.5304 40.8559 85.218 40.731 84.7807 40.731H84.5933V43.9154ZM83.2812 39.6279H85.0098C85.8428 39.6279 86.4468 39.8361 86.8216 40.2523C87.1965 40.6686 87.3839 41.3554 87.3839 42.2712C87.3839 43.5616 87.0091 44.3942 86.2385 44.7688C85.8636 44.9353 85.3013 45.0185 84.5933 45.0185V49.3269H83.2812V39.6279Z" fill="#EDDFD0"/>
<path fill-rule="evenodd" clip-rule="evenodd" d="M88.3848 39.6484H91.8627V40.7515H89.6968V43.8111H91.6127V44.9142H89.6968V48.2235H91.8627V49.3474H88.3848V39.6484Z" fill="#EDDFD0"/>
<path fill-rule="evenodd" clip-rule="evenodd" d="M94.3823 43.936C94.8822 43.936 95.257 43.8111 95.4653 43.5821C95.6735 43.3532 95.7777 42.9577 95.7777 42.3958C95.7777 42.0836 95.7568 41.8338 95.7152 41.6257C95.6735 41.4176 95.6111 41.2302 95.5069 41.1054C95.4236 40.9805 95.2987 40.8764 95.1321 40.814C94.9863 40.7515 94.7988 40.7099 94.6114 40.7099H94.3823V43.936ZM93.0703 39.6484H94.7988C95.5069 39.6484 96.0484 39.8149 96.3816 40.148C96.8189 40.585 97.048 41.2511 97.048 42.1668C97.048 42.8537 96.9231 43.4156 96.694 43.8527C96.4649 44.269 96.1317 44.5395 95.6944 44.6228L97.4854 49.3474H96.1525L94.3823 44.602V49.3474H93.0703V39.6484Z" fill="#EDDFD0"/>
<path fill-rule="evenodd" clip-rule="evenodd" d="M97.8379 39.6484H102.107V40.7932H100.629V49.3474H99.3582V40.7932H97.8379V39.6484Z" fill="#EDDFD0"/>
<path d="M104.128 39.6484H102.816V49.3474H104.128V39.6484Z" fill="#EDDFD0"/>
<path fill-rule="evenodd" clip-rule="evenodd" d="M105.627 39.6484H109.105V40.7515H106.939V43.8111H108.855V44.9142H106.939V48.2235H109.105V49.3474H105.627V39.6484Z" fill="#EDDFD0"/>
<path fill-rule="evenodd" clip-rule="evenodd" d="M113.541 39.8365V41.1061C113.145 40.8148 112.791 40.6691 112.458 40.6691C112.104 40.6691 111.833 40.794 111.625 41.0437C111.417 41.2727 111.292 41.5849 111.292 41.9595C111.292 42.2925 111.375 42.5839 111.521 42.8336C111.604 42.9585 111.729 43.125 111.917 43.3332C112.104 43.5413 112.333 43.7911 112.625 44.0824C113.166 44.6236 113.52 45.0815 113.708 45.4769C113.895 45.8516 113.999 46.3303 113.999 46.8714C113.999 47.6207 113.791 48.2451 113.374 48.7238C112.958 49.2025 112.416 49.4314 111.75 49.4314C111.188 49.4314 110.709 49.2857 110.313 48.9735V47.6831C110.771 48.0161 111.209 48.1826 111.583 48.1826C111.937 48.1826 112.208 48.0578 112.416 47.8288C112.625 47.5999 112.729 47.2669 112.729 46.8714C112.729 46.5176 112.646 46.2054 112.5 45.914C112.416 45.7891 112.312 45.6226 112.167 45.4561C112.021 45.2896 111.854 45.0815 111.625 44.8733C111.292 44.5403 111.021 44.2489 110.792 43.9992C110.584 43.7494 110.417 43.5205 110.313 43.3332C110.105 42.9585 110.021 42.5006 110.021 41.9387C110.021 41.1894 110.209 40.5858 110.605 40.1279C111 39.67 111.542 39.4619 112.208 39.4619C112.666 39.4619 113.125 39.566 113.541 39.7949V39.8365Z" fill="#EDDFD0"/>
<path fill-rule="evenodd" clip-rule="evenodd" d="M69.9544 26.6201V27.8897C69.5587 27.5983 69.2047 27.4526 68.8715 27.4526C68.5175 27.4526 68.2467 27.5775 68.0385 27.8064C67.8302 28.0354 67.7053 28.3475 67.7053 28.7222C67.7053 29.0552 67.7886 29.3466 67.9343 29.5963C68.0176 29.7212 68.1426 29.8877 68.33 30.0959C68.5175 30.304 68.7465 30.5537 69.0381 30.8451C69.5796 31.3863 69.9336 31.8442 70.121 32.2396C70.3085 32.6143 70.4126 33.093 70.4126 33.6341C70.4126 34.3834 70.2043 35.0078 69.7878 35.4865C69.3713 35.9652 68.8298 36.1941 68.1634 36.1941C67.6011 36.1941 67.1221 36.0484 66.7265 35.7362V34.4458C67.1846 34.7788 67.6219 34.9453 67.9968 34.9453C68.3508 34.9453 68.6216 34.8205 68.8298 34.5915C69.0381 34.3626 69.1214 34.0295 69.1214 33.6341C69.1214 33.2803 69.0381 32.9681 68.8923 32.6767C68.809 32.5518 68.7049 32.3853 68.5591 32.2188C68.4133 32.0523 68.2467 31.8442 68.0176 31.636C67.6844 31.303 67.4137 31.0116 67.1846 30.7619C66.9764 30.5121 66.8097 30.2832 66.7056 30.0959C66.4974 29.7212 66.4141 29.2633 66.4141 28.7014C66.4141 27.9521 66.6015 27.3485 66.9972 26.8906C67.3929 26.4536 67.9343 26.2246 68.6008 26.2246C69.0589 26.2246 69.5171 26.3287 69.9336 26.5576L69.9544 26.6201Z" fill="#EDDFD0"/>
<path fill-rule="evenodd" clip-rule="evenodd" d="M74.3472 33.0504L74.8887 33.8205C74.972 33.1961 75.0136 32.5093 75.0136 31.7184C75.0136 30.0533 74.9303 28.9294 74.7845 28.3466C74.6179 27.7847 74.3055 27.4933 73.8266 27.4933C73.3892 27.4933 73.0768 27.7431 72.9311 28.2218C72.7853 28.6796 72.702 29.6162 72.702 31.0107C72.702 32.5717 72.7853 33.654 72.9311 34.2368C73.0977 34.7779 73.41 35.0693 73.8682 35.0693C74.0556 35.0693 74.2222 35.0069 74.3888 34.9028L73.5558 33.7164L74.3264 33.092L74.3472 33.0504ZM76.6588 36.2765L75.8258 36.8592L75.1594 35.9018C74.7637 36.1308 74.3472 36.2348 73.889 36.2348C72.9519 36.2348 72.2855 35.8394 71.8898 35.0485C71.4941 34.2368 71.3066 32.8631 71.3066 30.9275C71.3066 29.2416 71.4941 28.0552 71.8689 27.3476C72.2438 26.64 72.8894 26.2861 73.7849 26.2861C74.7221 26.2861 75.3885 26.6816 75.7842 27.4517C76.159 28.2009 76.3465 29.5538 76.3465 31.4894C76.3465 33.2377 76.159 34.4449 75.805 35.1317L76.638 36.2765H76.6588Z" fill="#EDDFD0"/>
<path fill-rule="evenodd" clip-rule="evenodd" d="M77.6797 26.4326H78.9709V33.2802C78.9709 33.9878 79.0334 34.4457 79.1583 34.6746C79.2833 34.9036 79.554 35.0285 79.9289 35.0285C80.3037 35.0285 80.5536 34.9244 80.6786 34.7163C80.8035 34.5081 80.866 34.0919 80.866 33.4675V26.4326H82.1572V33.4675C82.1572 34.5289 81.9906 35.2366 81.6782 35.6112C81.2825 36.0275 80.6994 36.2356 79.908 36.2356C79.0334 36.2356 78.4294 35.9651 78.0754 35.4239C77.8255 35.0493 77.7005 34.3416 77.7005 33.2802V26.4326H77.6797Z" fill="#EDDFD0"/>
<path fill-rule="evenodd" clip-rule="evenodd" d="M86.2592 33.218L85.9676 31.6778C85.7802 30.6372 85.6136 29.5133 85.4886 28.3061C85.4262 28.8889 85.3637 29.4716 85.2596 30.0752C85.1763 30.6788 85.0513 31.3032 84.9263 31.9692L84.6973 33.218H86.2592ZM85.0097 26.4121H86.0301L88.1127 36.1111H86.8215L86.4466 34.2171H84.5307L84.1558 36.1111H82.9062L85.0097 26.4121Z" fill="#EDDFD0"/>
<path fill-rule="evenodd" clip-rule="evenodd" d="M90.1753 30.7201C90.6751 30.7201 91.05 30.5953 91.2582 30.3663C91.4665 30.1374 91.5706 29.7419 91.5706 29.18C91.5706 28.8678 91.5498 28.618 91.5081 28.4099C91.4665 28.2017 91.404 28.0144 91.2999 27.8895C91.2166 27.7647 91.0916 27.6606 90.925 27.5982C90.7792 27.5357 90.6126 27.5149 90.4044 27.5149H90.1753V30.7409V30.7201ZM88.8633 26.4326H90.5918C91.2999 26.4326 91.8414 26.5991 92.1746 26.9321C92.6119 27.3692 92.841 28.0352 92.841 28.951C92.841 29.6378 92.716 30.1998 92.487 30.6369C92.2579 31.0531 91.9247 31.3237 91.4873 31.407L93.2783 36.1316H91.9455L90.1753 31.3862V36.1316H88.8633V26.4326Z" fill="#EDDFD0"/>
<path fill-rule="evenodd" clip-rule="evenodd" d="M94.2988 26.4326H97.7767V27.5357H95.6108V30.5953H97.5268V31.6983H95.6108V35.0285H97.7767V36.1316H94.2988V26.4326Z" fill="#EDDFD0"/>
<path fill-rule="evenodd" clip-rule="evenodd" d="M100.276 34.9868C101.068 34.9868 101.609 34.7371 101.88 34.2584C102.151 33.7797 102.296 32.8431 102.296 31.4486C102.296 29.95 102.171 28.9302 101.901 28.3682C101.63 27.8063 101.151 27.5357 100.443 27.5357H100.276V34.9868ZM98.9642 26.4326H100.568C101.068 26.4326 101.463 26.4951 101.796 26.5991C102.109 26.7032 102.38 26.8905 102.63 27.1611C103.004 27.5565 103.254 28.0769 103.4 28.7221C103.546 29.3465 103.629 30.2414 103.629 31.407C103.629 32.4684 103.546 33.3426 103.379 34.0294C103.213 34.6746 102.942 35.1742 102.546 35.5072C102.067 35.9234 101.234 36.1524 100.005 36.1524H98.9434V26.4534L98.9642 26.4326Z" fill="#EDDFD0"/>
<path fill-rule="evenodd" clip-rule="evenodd" d="M66.7266 13.2158H68.0386V21.8117H70.1628V22.9148H66.7266V13.2158Z" fill="#EDDFD0"/>
<path d="M72.2847 13.2158H70.9727V22.9148H72.2847V13.2158Z" fill="#EDDFD0"/>
<path fill-rule="evenodd" clip-rule="evenodd" d="M73.0156 13.2158H74.3068L74.8899 16.7957L74.9941 17.4409L75.2023 18.8562C75.244 19.0851 75.2648 19.3141 75.2856 19.5014C75.3065 19.6887 75.3481 19.876 75.3689 20.0425L75.4314 20.5212C75.4314 20.5212 75.4522 20.3339 75.4731 20.2715C75.4939 20.209 75.4731 20.1258 75.4939 20.0842L75.6605 18.9603L75.8896 17.4825C75.9104 17.3576 75.9312 17.2328 75.952 17.1079C75.9729 17.0038 75.9937 16.8997 76.0145 16.7957L76.6393 13.2158H77.868L75.9729 22.9148H74.9316L73.0573 13.2158H73.0156Z" fill="#EDDFD0"/>
</svg>
